<svg width="22" height="36" viewBox="0 0 22 36" fill="none" xmlns="http://www.w3.org/2000/svg">
<path d="M18.8612 25.147C18.8612 25.3852 18.7666 25.6136 18.5981 25.7821C18.4297 25.9505 18.2013 26.0451 17.9631 26.0451H3.59342C3.35522 26.0451 3.12679 25.9505 2.95836 25.7821C2.78993 25.6136 2.69531 25.3852 2.69531 25.147V15.7079C2.69522 15.5711 2.7264 15.436 2.78648 15.313C2.84657 15.1901 2.93396 15.0825 3.04198 14.9984L10.2268 9.41042C10.3845 9.28778 10.5785 9.22119 10.7783 9.22119C10.978 9.22119 11.172 9.28778 11.3297 9.41042L18.5145 14.9984C18.6225 15.0825 18.7099 15.1901 18.77 15.313C18.8301 15.436 18.8613 15.5711 18.8612 15.7079V25.147V25.147ZM17.065 24.2489V16.1462L10.7783 11.2569L4.49152 16.1462V24.2489H17.065ZM6.28773 20.6565H15.2688V22.4527H6.28773V20.6565Z" fill="black"/>
</svg>
